<svg xmlns="http://www.w3.org/2000/svg" width="1024" height="1024" viewBox="0 0 1024 1024">
  <path d="M 343.00 359.50 L 284.00 359.50 L 248.00 355.50 L 215.00 344.50 L 196.00 332.50 L 172.50 305.00 L 157.50 271.00 L 137.50 201.00 L 127.50 181.00 L 103.50 149.00 L 113.00 147.50 L 127.00 151.50 L 149.00 164.50 L 162.50 177.00 L 179.50 200.00 L 209.50 261.00 L 225.00 278.50 L 240.00 289.50 L 259.00 298.50 L 291.00 305.50 L 390.00 306.50 L 363.50 331.00 L 343.00 359.50 Z M 702.00 359.50 L 680.00 358.50 L 664.50 331.00 L 640.00 306.50 L 733.00 305.50 L 762.00 299.50 L 781.00 291.50 L 797.00 280.50 L 815.50 260.00 L 844.50 199.00 L 865.50 172.00 L 897.00 151.50 L 911.00 147.50 L 919.50 149.00 L 901.50 172.00 L 887.50 197.00 L 858.50 291.00 L 844.50 315.00 L 830.00 330.50 L 811.00 343.50 L 784.00 353.50 L 751.00 358.50 L 702.00 359.50 Z M 519.00 838.50 L 519.50 800.00 L 504.00 726.50 L 501.50 758.00 L 506.50 798.00 L 503.50 814.00 L 492.00 830.50 L 485.50 805.00 L 455.50 743.00 L 448.00 698.50 L 442.50 716.00 L 443.50 736.00 L 449.50 759.00 L 459.50 781.00 L 458.00 782.50 L 443.50 768.00 L 431.00 740.50 L 413.00 751.50 L 407.50 751.00 L 416.50 722.00 L 415.50 698.00 L 403.50 639.00 L 403.50 608.00 L 407.50 585.00 L 404.50 585.00 L 395.50 603.00 L 390.50 630.00 L 392.50 660.00 L 404.50 709.00 L 379.50 689.00 L 367.50 670.00 L 360.50 647.00 L 359.50 615.00 L 373.50 559.00 L 373.50 543.00 L 370.50 543.00 L 352.50 586.00 L 347.00 606.50 L 338.50 594.00 L 333.50 579.00 L 334.50 554.00 L 347.50 512.00 L 347.50 490.00 L 344.50 490.00 L 333.50 525.00 L 320.50 543.00 L 314.00 546.50 L 316.50 516.00 L 301.50 475.00 L 296.50 439.00 L 293.50 439.00 L 290.50 452.00 L 290.50 475.00 L 296.00 504.50 L 276.50 483.00 L 264.00 450.50 L 260.00 474.50 L 247.50 460.00 L 241.50 441.00 L 245.50 415.00 L 224.00 422.50 L 223.50 420.00 L 236.50 394.00 L 257.00 378.50 L 288.00 369.50 L 341.00 367.50 L 324.50 404.00 L 324.00 431.50 L 332.50 405.00 L 344.50 382.00 L 372.50 341.00 L 395.00 318.50 L 437.00 297.50 L 477.00 292.50 L 472.00 278.50 L 485.00 279.50 L 502.00 288.50 L 527.00 273.50 L 547.00 269.50 L 548.50 272.00 L 541.00 288.50 L 569.00 289.50 L 598.00 296.50 L 628.00 312.50 L 644.50 328.00 L 686.50 391.00 L 695.50 411.00 L 702.00 437.50 L 702.50 412.00 L 695.50 390.00 L 682.50 370.00 L 686.00 367.50 L 735.00 369.50 L 763.00 377.50 L 787.50 395.00 L 796.50 410.00 L 799.50 422.00 L 780.00 413.50 L 776.50 415.00 L 781.50 428.00 L 781.50 445.00 L 774.50 462.00 L 764.00 473.50 L 759.00 448.50 L 744.50 486.00 L 730.00 502.50 L 727.50 499.00 L 732.50 473.00 L 730.50 458.00 L 727.50 458.00 L 717.50 504.00 L 702.00 536.50 L 694.50 505.00 L 692.00 501.50 L 690.50 503.00 L 686.50 525.00 L 687.50 566.00 L 679.00 587.50 L 663.50 551.00 L 660.50 551.00 L 660.50 567.00 L 667.50 599.00 L 666.50 627.00 L 658.50 654.00 L 638.00 685.50 L 635.50 685.00 L 640.50 659.00 L 638.50 633.00 L 629.50 604.00 L 621.50 590.00 L 617.50 589.00 L 626.50 642.00 L 626.50 677.00 L 619.50 707.00 L 603.00 737.50 L 601.50 693.00 L 599.00 688.50 L 596.50 693.00 L 589.50 733.00 L 592.50 780.00 L 584.00 775.50 L 572.50 763.00 L 561.00 727.50 L 556.50 741.00 L 548.50 801.00 L 539.50 820.00 L 519.00 838.50 Z M 585.50 418.00 L 595.50 402.00 L 599.50 388.00 L 597.50 354.00 L 585.50 330.00 L 576.00 320.50 L 556.00 311.50 L 554.50 313.00 L 571.50 334.00 L 580.50 356.00 L 584.50 376.00 L 585.50 418.00 Z M 487.50 436.00 L 475.50 407.00 L 470.50 382.00 L 470.50 354.00 L 479.00 320.50 L 464.50 332.00 L 456.50 345.00 L 451.50 364.00 L 451.50 381.00 L 462.50 413.00 L 477.00 430.50 L 487.50 436.00 Z M 425.50 515.00 L 437.50 491.00 L 440.50 461.00 L 426.50 406.00 L 423.50 376.00 L 429.50 349.00 L 442.50 330.00 L 441.00 328.50 L 428.00 335.50 L 413.50 352.00 L 407.50 366.00 L 404.50 387.00 L 407.50 411.00 L 428.50 471.00 L 428.50 494.00 L 423.50 512.00 L 425.50 515.00 Z M 609.50 465.00 L 624.50 451.00 L 634.50 433.00 L 641.50 397.00 L 637.50 371.00 L 629.50 353.00 L 620.50 341.00 L 606.00 329.50 L 604.50 332.00 L 618.50 362.00 L 623.50 393.00 L 621.50 423.00 L 607.50 463.00 L 609.50 465.00 Z M 406.50 482.00 L 385.50 413.00 L 385.00 367.50 L 370.50 391.00 L 367.50 406.00 L 368.50 423.00 L 380.50 455.00 L 406.50 482.00 Z M 498.50 521.00 L 514.00 510.50 L 536.50 487.00 L 546.50 472.00 L 556.50 446.00 L 556.50 400.00 L 548.50 380.00 L 539.00 368.50 L 541.50 408.00 L 535.50 444.00 L 526.50 469.00 L 496.50 520.00 L 498.50 521.00 Z M 630.50 519.00 L 642.00 512.50 L 654.50 500.00 L 665.50 482.00 L 671.50 462.00 L 671.50 442.00 L 667.00 428.50 L 650.50 480.00 L 629.50 516.00 L 630.50 519.00 Z M 613.50 558.00 L 591.50 527.00 L 583.50 504.00 L 580.00 478.50 L 570.50 498.00 L 572.50 524.00 L 589.00 547.50 L 604.00 556.50 L 613.50 558.00 Z M 569.50 649.00 L 580.00 645.50 L 585.50 639.00 L 589.50 617.00 L 582.50 589.00 L 569.00 577.50 L 556.00 576.50 L 526.00 583.50 L 506.00 584.50 L 457.00 576.50 L 447.00 581.50 L 439.50 592.00 L 434.50 616.00 L 437.50 637.00 L 447.00 647.50 L 463.00 649.50 L 477.00 644.50 L 483.50 634.00 L 478.00 627.50 L 464.00 621.50 L 457.50 615.00 L 455.50 598.00 L 460.00 591.50 L 469.00 590.50 L 493.00 603.50 L 518.00 605.50 L 537.00 601.50 L 555.00 590.50 L 562.00 590.50 L 567.50 598.00 L 567.50 612.00 L 560.00 621.50 L 544.00 628.50 L 540.50 636.00 L 552.00 646.50 L 569.50 649.00 Z M 517.50 678.00 L 547.00 673.50 L 554.50 668.00 L 554.00 662.50 L 506.00 657.50 L 482.00 659.50 L 468.50 665.00 L 472.00 670.50 L 484.00 675.50 L 517.50 678.00 Z" fill="#10B981" fill-rule="evenodd"/>
</svg>
